#!OML:ASF X:\für Bonn\!DataBase\2005_08_12_Daniel\c3d\Daniel.ASF
:FULLY-SPECIFIED
:DEGREES
305
root 0.759438 17.4782 -16.6205 178.802 166.485 -178.093
lowerback 42.3716 -2.08776 5.07528
upperback 11.5576 -0.72722 -4.59194
thorax -7.35446 -0.025775 -7.28003
lowerneck -0.761102 -3.68264 -5.35587
upperneck 3.98214 -4.95542 4.52812
head 1.66043 -2.47225 2.27854
rclavicle -3.16068e-014 6.65929e-014
rhumerus -10.0027 7.62217 -82.9648
rradius 17.4284
rwrist 30.6423
rhand -20.6285 16.9363
rfingers 7.12502
rthumb 5.73303 -12.9662
lclavicle -3.16068e-014 6.65929e-014
lhumerus -20.0679 10.4051 81.6764
lradius 36.4497
lwrist -5.32969
lhand -14.9655 -7.71015
lfingers 7.12502
lthumb 11.198 21.971
rfemur -14.5537 2.67511 17.7271
rtibia 36.8941
rfoot -23.476 -9.58161
rtoes -11.7462
lfemur -16.9461 -11.8714 -14.9406
ltibia 37.9252
lfoot -20.1445 -1.80069
ltoes -15.5283
306
root 0.739829 17.4788 -16.5543 178.333 166.743 -178.203
lowerback 41.7219 -2.08175 5.06888
upperback 11.4586 -0.762897 -4.57809
thorax -7.28085 -0.0537986 -7.24894
lowerneck -0.720893 -3.53149 -5.55585
upperneck 4.18591 -4.75722 4.56249
head 1.71622 -2.37668 2.33124
rclavicle 1.37161e-014 -2.94201e-014
rhumerus -10.7475 7.90543 -83.2991
rradius 17.55
rwrist 29.7723
rhand -20.2989 16.906
rfingers 7.12502
rthumb 6.05122 -12.9876
lclavicle 1.37161e-014 -2.94201e-014
lhumerus -20.185 10.4695 81.5456
lradius 36.6002
lwrist -5.12541
lhand -14.9153 -7.63552
lfingers 7.12502
lthumb 11.2465 22.043
rfemur -13.5923 2.82072 18.0187
rtibia 36.4368
rfoot -23.6038 -9.41672
rtoes -11.4649
lfemur -16.0776 -11.867 -14.8472
ltibia 37.8307
lfoot -20.5466 -1.62116
ltoes -15.7002
307
root 0.720591 17.4777 -16.4857 177.832 167.001 -178.351
lowerback 41.0642 -2.09524 5.1176
upperback 11.3717 -0.801352 -4.57444
thorax -7.18783 -0.0810491 -7.25714
lowerneck -0.644167 -3.36805 -5.67697
upperneck 4.38611 -4.54568 4.58587
head 1.76035 -2.27403 2.367
rclavicle -6.55989e-015 -3.95581e-014
rhumerus -11.4779 7.93479 -83.6807
rradius 17.6459
rwrist 29.087
rhand -19.93 16.8828
rfingers 7.12502
rthumb 6.40738 -13.0003
lclavicle -6.55989e-015 -3.95581e-014
lhumerus -20.3187 10.5324 81.4018
lradius 36.7545
lwrist -4.87908
lhand -14.8169 -7.62911
lfingers 7.12502
lthumb 11.3414 22.0442
rfemur -12.6004 2.95028 18.3491
rtibia 35.9918
rfoot -23.736 -9.21744
rtoes -11.2037
lfemur -15.2111 -11.8662 -14.7177
ltibia 37.796
lfoot -20.9486 -1.44929
ltoes -15.9344
308
root 0.701086 17.4747 -16.4148 177.322 167.263 -178.532
lowerback 40.381 -2.09533 5.17074
upperback 11.3119 -0.81902 -4.53911
thorax -7.04768 -0.0967367 -7.24177
lowerneck -0.579779 -3.22346 -5.7203
upperneck 4.55925 -4.35621 4.52518
head 1.79375 -2.1825 2.35985
rclavicle -1.49089e-014 1.78906e-014
rhumerus -12.163 7.9781 -84.0382
rradius 17.6975
rwrist 28.3726
rhand -19.6386 16.9272
rfingers 7.12502
rthumb 6.68873 -12.9472
lclavicle -1.49089e-014 1.78906e-014
lhumerus -20.4051 10.5606 81.2864
lradius 36.9003
lwrist -4.60027
lhand -14.6396 -7.6371
lfingers 7.12502
lthumb 11.5124 22.0268
rfemur -11.6074 3.04776 18.7198
rtibia 35.5513
rfoot -23.8554 -9.01447
rtoes -10.919
lfemur -14.3721 -11.8407 -14.5549
ltibia 37.8355
lfoot -21.339 -1.26488
ltoes -16.2829
309
root 0.680635 17.4711 -16.3451 176.816 167.527 -178.715
lowerback 39.7767 -2.09198 5.19168
upperback 11.2024 -0.841258 -4.48855
thorax -6.98284 -0.118945 -7.19193
lowerneck -0.541448 -3.05865 -5.70897
upperneck 4.81092 -4.13981 4.43723
head 1.85348 -2.07713 2.33387
rclavicle -7.95139e-015 -2.14687e-014
rhumerus -12.8642 7.96389 -84.3981
rradius 17.7154
rwrist 27.7429
rhand -19.3591 16.9371
rfingers 7.12502
rthumb 6.95849 -12.9286
lclavicle -7.95139e-015 -2.14687e-014
lhumerus -20.558 10.7214 81.1908
lradius 37.0562
lwrist -4.39116
lhand -14.5045 -7.63171
lfingers 7.12502
lthumb 11.6426 22.0248
rfemur -10.6178 3.1675 19.1017
rtibia 35.1191
rfoot -23.985 -8.83955
rtoes -10.7338
lfemur -13.5918 -11.7545 -14.3833
ltibia 37.9485
lfoot -21.7071 -1.10038
ltoes -16.7134
310
root 0.661254 17.4662 -16.2745 176.325 167.79 -178.934
lowerback 39.1667 -2.09871 5.27382
upperback 11.103 -0.853038 -4.43982
thorax -6.89976 -0.134261 -7.1809
lowerneck -0.552714 -2.91082 -5.54921
upperneck 5.02716 -3.94281 4.27919
head 1.90552 -1.97954 2.25649
rclavicle 2.46493e-014 -2.50469e-014
rhumerus -13.5386 7.69195 -84.737
rradius 17.735
rwrist 27.3495
rhand -19.0886 17.0011
rfingers 7.12502
rthumb 7.21967 -12.8557
lclavicle 2.46493e-014 -2.50469e-014
lhumerus -20.7203 10.7784 81.112
lradius 37.254
lwrist -4.2315
lhand -14.412 -7.62667
lfingers 7.12502
lthumb 11.7318 22.0248
rfemur -9.65947 3.25879 19.5214
rtibia 34.7008
rfoot -24.1063 -8.69401
rtoes -10.5764
lfemur -12.8817 -11.6386 -14.1633
ltibia 38.1467
lfoot -22.0366 -0.954488
ltoes -16.9723
311
root 0.641451 17.4611 -16.2061 175.872 168.045 -179.152
lowerback 38.6381 -2.10111 5.33805
upperback 10.9662 -0.860898 -4.36553
thorax -6.87895 -0.151106 -7.13466
lowerneck -0.784079 -2.77315 -5.35272
upperneck 5.38889 -3.75002 4.07472
head 2.04334 -1.88264 2.15526
rclavicle 3.1408e-014 -1.43125e-014
rhumerus -14.2008 7.22887 -85.0099
rradius 17.7768
rwrist 27.1425
rhand -18.7767 17.0631
rfingers 7.12502
rthumb 7.52067 -12.7832
lclavicle 3.1408e-014 -1.43125e-014
lhumerus -20.8616 10.9456 81.0731
lradius 37.4033
lwrist -4.17882
lhand -14.3136 -7.6941
lfingers 7.12502
lthumb 11.8267 21.9519
rfemur -8.76331 3.35363 19.9326
rtibia 34.3082
rfoot -24.2353 -8.51411
rtoes -10.3872
lfemur -12.2824 -11.5004 -13.9321
ltibia 38.4352
lfoot -22.2938 -0.81969
ltoes -17.3272
312
root 0.622761 17.4544 -16.139 175.492 168.3 -179.367
lowerback 38.0836 -2.10699 5.41851
upperback 10.8178 -0.87018 -4.30069
thorax -6.86019 -0.168683 -7.1074
lowerneck -1.13248 -2.65168 -5.0351
upperneck 5.80672 -3.57436 3.79822
head 2.21784 -1.79269 2.00797
rclavicle 1.55052e-014 -4.53229e-014
rhumerus -14.7927 6.57942 -85.2764
rradius 17.7375
rwrist 27.1546
rhand -18.5514 17.0733
rfingers 7.12502
rthumb 7.73819 -12.7651
lclavicle 1.55052e-014 -4.53229e-014
lhumerus -21.0127 11.0997 81.0417
lradius 37.5859
lwrist -4.1298
lhand -14.2291 -7.78966
lfingers 7.12502
lthumb 11.9082 21.8517
rfemur -7.97637 3.43421 20.3361
rtibia 33.9645
rfoot -24.3485 -8.34777
rtoes -10.1783
lfemur -11.8441 -11.3752 -13.696
ltibia 38.8442
lfoot -22.4907 -0.628437
ltoes -17.5927
313
root 0.603662 17.4467 -16.0723 175.136 168.566 -179.58
lowerback 37.5356 -2.1074 5.49691
upperback 10.6594 -0.873451 -4.23014
thorax -6.85021 -0.183961 -7.07561
lowerneck -1.47111 -2.52143 -4.7587
upperneck 6.21856 -3.38896 3.55966
head 2.3926 -1.69836 1.88249
rclavicle -1.59028e-014 -1.15295e-014
rhumerus -15.422 5.78713 -85.5063
rradius 17.7373
rwrist 27.3112
rhand -18.3196 17.1768
rfingers 7.12502
rthumb 7.96189 -12.6532
lclavicle -1.59028e-014 -1.15295e-014
lhumerus -21.1884 11.3125 81.0367
lradius 37.7638
lwrist -4.13807
lhand -14.2461 -7.95002
lfingers 7.12502
lthumb 11.8918 21.6923
rfemur -7.24443 3.44966 20.7288
rtibia 33.664
rfoot -24.4577 -8.13967
rtoes -10.1517
lfemur -11.4897 -11.2562 -13.454
ltibia 39.3746
lfoot -22.6195 -0.43657
ltoes -17.6994
